# This file uses centimeters as units for non-parametric coordinates.

mtllib BasicFLoorMesh.mtl
g default
v -5.000000 -0.500000 5.000000
v 5.000000 -0.500000 5.000000
v -5.000000 0.500000 5.000000
v 5.000000 0.500000 5.000000
v -5.000000 0.500000 -5.000000
v 5.000000 0.500000 -5.000000
v -5.000000 -0.500000 -5.000000
v 5.000000 -0.500000 -5.000000
vt -0.000000 0.000000
vt 1.000000 0.000000
vt 1.000000 0.100000
vt -0.000000 0.100000
vt -0.000000 0.000000
vt 1.000000 0.000000
vt 1.000000 0.100000
vt -0.000000 0.100000
vt 1.000000 0.000000
vt 0.000000 0.000000
vt 0.000000 0.100000
vt 1.000000 0.100000
vt 0.000000 -0.000000
vt 1.000000 -0.000000
vt 1.000000 1.000000
vt 0.000000 1.000000
vt -0.000000 0.100000
vt 1.000000 0.100000
vt 1.000000 0.000000
vt -0.000000 0.000000
vn 0.000000 0.000000 1.000000
vn 0.000000 0.000000 1.000000
vn 0.000000 0.000000 1.000000
vn 0.000000 0.000000 1.000000
vn 0.000000 1.000000 0.000000
vn 0.000000 1.000000 0.000000
vn 0.000000 1.000000 0.000000
vn 0.000000 1.000000 0.000000
vn 0.000000 0.000000 -1.000000
vn 0.000000 0.000000 -1.000000
vn 0.000000 0.000000 -1.000000
vn 0.000000 0.000000 -1.000000
vn 1.000000 0.000000 0.000000
vn 1.000000 0.000000 0.000000
vn 1.000000 0.000000 0.000000
vn 1.000000 0.000000 0.000000
vn -1.000000 0.000000 0.000000
vn -1.000000 0.000000 0.000000
vn -1.000000 0.000000 0.000000
vn -1.000000 0.000000 0.000000
s off
g pCube1
usemtl lambert2SG
f 1/5/1 2/6/2 4/7/3 3/8/4
f 3/13/5 4/14/6 6/15/7 5/16/8
f 5/17/9 6/18/10 8/19/11 7/20/12
f 2/1/13 8/2/14 6/3/15 4/4/16
f 7/9/17 1/10/18 3/11/19 5/12/20
